HIERARCHY
ROOT root
{
	OFFSET 0.000000 0.000000 0.000000
	CHANNELS 6 Xposition Yposition Zposition Zrotation Yrotation Xrotation
	JOINT lhip
	{
		OFFSET 0.058581 -0.082280 -0.017664
		CHANNELS 3 Zrotation Yrotation Xrotation
		JOINT lknee
		{
			OFFSET 0.043451 -0.386469 0.008037
			CHANNELS 3 Zrotation Yrotation Xrotation
			JOINT lankle
			{
				OFFSET -0.014790 -0.426874 -0.037428
				CHANNELS 3 Zrotation Yrotation Xrotation
				JOINT ltoe
				{
					OFFSET 0.041054 -0.060286 0.122042
					CHANNELS 3 Zrotation Yrotation Xrotation
					End Site
					{
						OFFSET 0.000000 0.000000 0.000000
					}
				}
			}
		}
	}
	JOINT rhip
	{
		OFFSET -0.060310 -0.090513 -0.013543
		CHANNELS 3 Zrotation Yrotation Xrotation
		JOINT rknee
		{
			OFFSET -0.043257 -0.383688 -0.004843
			CHANNELS 3 Zrotation Yrotation Xrotation
			JOINT rankle
			{
				OFFSET 0.019056 -0.420046 -0.034562
				CHANNELS 3 Zrotation Yrotation Xrotation
				JOINT rtoe
				{
					OFFSET -0.034840 -0.062106 0.130323
					CHANNELS 3 Zrotation Yrotation Xrotation
					End Site
					{
						OFFSET 0.000000 0.000000 0.000000
					}
				}
			}
		}
	}
	JOINT lowerback
	{
		OFFSET 0.004439 0.124404 -0.038385
		CHANNELS 3 Zrotation Yrotation Xrotation
		JOINT upperback
		{
			OFFSET 0.004488 0.137956 0.026820
			CHANNELS 3 Zrotation Yrotation Xrotation
			JOINT chest
			{
				OFFSET -0.002265 0.056032 0.002855
				CHANNELS 3 Zrotation Yrotation Xrotation
				JOINT lowerneck
				{
					OFFSET -0.013390 0.211636 -0.033468
					CHANNELS 3 Zrotation Yrotation Xrotation
					JOINT upperneck
					{
						OFFSET 0.010113 0.088937 0.050410
						CHANNELS 3 Zrotation Yrotation Xrotation
						End Site
						{
							OFFSET 0.000000 0.000000 0.000000
						}
					}
				}
				JOINT lclavicle
				{
					OFFSET 0.071702 0.114000 -0.018898
					CHANNELS 3 Zrotation Yrotation Xrotation
					JOINT lshoulder
					{
						OFFSET 0.122921 0.045205 -0.019046
						CHANNELS 3 Zrotation Yrotation Xrotation
						JOINT lelbow
						{
							OFFSET 0.255332 -0.015649 -0.022946
							CHANNELS 3 Zrotation Yrotation Xrotation
							JOINT lwrist
							{
								OFFSET 0.265709 0.012698 -0.007375
								CHANNELS 3 Zrotation Yrotation Xrotation
								End Site
								{
									OFFSET 0.000000 0.000000 0.000000
								}
							}
						}
					}
				}
				JOINT rclavicle
				{
					OFFSET -0.082954 0.112472 -0.023707
					CHANNELS 3 Zrotation Yrotation Xrotation
					JOINT rshoulder
					{
						OFFSET -0.113228 0.046853 -0.008472
						CHANNELS 3 Zrotation Yrotation Xrotation
						JOINT relbow
						{
							OFFSET -0.260127 -0.014369 -0.031269
							CHANNELS 3 Zrotation Yrotation Xrotation
							JOINT rwrist
							{
								OFFSET -0.269108 0.006794 -0.006027
								CHANNELS 3 Zrotation Yrotation Xrotation
								End Site
								{
									OFFSET 0.000000 0.000000 0.000000
								}
							}
						}
					}
				}
			}
		}
	}
}
MOTION
Frames: 5
Frame Time: 0.033333
0.012771 1.381020 0.968032 -1.333990 0.203528 93.610717 6.673381 8.118028 1.739499 -2.681328 4.203683 6.126087 -0.127336 15.513797 -25.429422 0.000000 -0.000000 0.000000 -9.457189 -6.391958 -19.946819 0.191407 -4.445513 12.899736 4.161140 -6.590099 -0.329978 0.000000 -0.000000 0.000000 -2.498624 -0.165276 4.592428 2.472002 -3.370573 11.344518 -0.929645 0.054250 -8.010702 1.745606 -1.761071 -5.692629 7.919771 -2.088946 -3.103540 -32.063137 -6.398915 0.619241 -47.990242 -9.670192 20.786250 6.869690 -35.689503 -0.607966 -9.731325 -11.345834 12.632241 31.417711 10.986155 3.265163 41.558951 12.977942 8.082288 -10.623626 29.031976 -19.412726 0.901285 7.693672 -3.334431 
0.019336 1.393833 0.969707 -3.235051 0.129040 94.640665 5.535223 7.565843 0.850051 -2.685440 5.595157 4.610946 0.037395 16.293392 -24.806300 0.000000 -0.000000 0.000000 -9.561611 -6.080501 -21.135111 0.714827 -4.000826 10.213791 5.363761 -5.539845 1.654809 0.000000 -0.000000 0.000000 -3.827761 0.513146 3.757697 2.740849 -3.264342 11.810077 -1.250938 0.364341 -8.993972 0.470149 -1.881073 -5.768069 8.153672 -2.092911 -3.361602 -32.444445 -5.675448 0.510264 -45.748008 -10.546997 20.500300 7.058053 -36.297006 0.200693 -4.423358 -13.341902 11.396144 34.078195 10.811062 4.827203 41.976556 12.834525 10.428395 -9.997336 31.281790 -8.967224 -5.736659 12.899492 9.596694 
0.024518 1.404598 0.971425 -5.300075 0.501571 95.090021 5.018235 7.174003 0.482468 -2.502371 7.596621 3.477815 0.696995 16.646826 -24.065248 0.000000 -0.000000 0.000000 -9.291321 -5.425528 -21.785386 1.072065 -2.172348 9.324245 5.822294 -3.867800 0.854276 0.000000 -0.000000 0.000000 -4.032620 1.258628 3.238644 2.336003 -2.811747 12.245511 -1.616374 0.513405 -9.629963 -0.138103 -1.153666 -6.711541 7.352826 -2.540944 -2.750755 -32.566700 -5.053301 -0.200724 -43.894186 -10.528357 20.067163 8.360627 -37.715030 -1.157545 -3.280585 -13.905816 12.276064 35.328055 10.741965 5.566552 43.343561 13.474886 11.841941 -10.361821 33.236361 -8.827708 -4.677844 13.290684 9.990746 
0.029270 1.416896 0.973271 -6.840289 0.867722 94.885245 4.917838 6.851675 0.080243 -2.556727 8.710875 3.409976 1.303021 17.191137 -23.602571 0.000000 -0.000000 0.000000 -9.348880 -5.013263 -21.980517 1.449903 -0.826042 11.901648 5.894663 -3.029639 -2.383998 0.000000 -0.000000 0.000000 -4.108595 1.787674 3.347430 1.802555 -2.296122 12.501166 -1.937544 0.691734 -9.917487 -0.811890 -0.613764 -7.673168 6.346465 -3.037559 -2.386818 -32.864302 -4.776144 -1.132827 -41.616132 -10.625895 19.081527 9.962265 -39.285977 -3.513760 -0.193122 -15.025897 13.202344 36.537954 10.917164 6.068549 44.107059 14.072675 12.762582 -10.633193 35.052409 -8.711532 -6.346797 13.797356 10.903851 
0.031228 1.423187 0.973888 -7.256703 0.909969 94.524225 4.825317 6.797689 -0.093679 -2.563881 8.811992 3.700260 1.585408 17.491896 -23.447490 0.000000 -0.000000 0.000000 -9.723253 -5.096051 -21.810295 1.661307 -1.127225 14.804933 5.259553 -3.368522 -4.244004 0.000000 -0.000000 0.000000 -4.329234 1.910950 3.501637 1.583703 -1.990840 12.678598 -2.002744 0.774575 -9.949483 -1.130670 -0.444227 -8.014347 5.778163 -3.178654 -2.395642 -33.069774 -4.745996 -1.410091 -40.451131 -10.846063 18.253583 11.020733 -40.169151 -5.020804 1.403298 -15.589479 13.851202 37.116312 11.138450 6.245390 44.094483 14.165432 13.030550 -10.527507 36.235450 -8.207156 -7.088382 14.290011 11.697183 
